<svg width="1024" height="1024" viewBox="0 0 1024 1024" fill="none" xmlns="http://www.w3.org/2000/svg">
<g clip-path="url(#clip0_1_20)">
<path d="M781.898 206.157L613.588 374.438C611.041 371.864 608.467 369.402 605.837 366.968C605.501 366.66 605.137 366.324 604.801 366.017C516.855 288.577 382.683 291.878 298.681 375.864C269.832 404.709 250.525 439.428 240.703 476.19C239.276 481.617 238.017 487.101 236.982 492.612C223.886 562.135 243.977 636.665 297.142 690.828L296.387 691.584C213.029 608.269 181.466 492.78 201.697 385.097C203.292 376.62 205.195 368.227 207.433 359.862C222.487 303.516 252.12 250.22 296.359 205.989C425.243 77.1271 631.076 72.0633 765.976 190.881C766.508 191.357 767.039 191.832 767.571 192.308C772.412 196.84 777.197 201.428 781.898 206.157Z" fill="url(#paint0_linear_1_20)"/>
<path d="M242.102 817.816L410.412 649.534C412.959 652.108 415.533 654.57 418.163 657.004C418.499 657.312 418.863 657.648 419.199 657.955C507.145 735.396 641.317 732.094 725.319 648.108C754.168 619.263 773.475 584.544 783.297 547.782C784.724 542.355 785.983 536.871 787.018 531.36C800.114 461.837 780.023 387.307 726.858 333.144L727.613 332.388C810.971 415.704 842.534 531.192 822.303 638.875C820.708 647.352 818.805 655.745 816.567 664.11C801.513 720.456 771.88 773.752 727.641 817.983C598.757 946.845 392.924 951.909 258.024 833.091C257.492 832.615 256.961 832.14 256.429 831.664C251.588 827.132 246.803 822.544 242.102 817.816Z" fill="url(#paint1_linear_1_20)"/>
<path d="M501.157 612.101C560.144 612.101 607.963 564.291 607.963 505.313C607.963 446.336 560.144 398.526 501.157 398.526C442.17 398.526 394.351 446.336 394.351 505.313C394.351 564.291 442.17 612.101 501.157 612.101Z" fill="url(#paint2_linear_1_20)"/>
</g>
<defs>
<linearGradient id="paint0_linear_1_20" x1="670.118" y1="105.412" x2="245.82" y2="636.626" gradientUnits="userSpaceOnUse">
<stop stop-color="#3C5F90"/>
<stop offset="1" stop-color="#1C2D44"/>
</linearGradient>
<linearGradient id="paint1_linear_1_20" x1="562.888" y1="813.311" x2="780.521" y2="333.908" gradientUnits="userSpaceOnUse">
<stop stop-color="#E29840"/>
<stop offset="0.99808" stop-color="#AB7330"/>
</linearGradient>
<linearGradient id="paint2_linear_1_20" x1="501.157" y1="398.526" x2="501.157" y2="612.101" gradientUnits="userSpaceOnUse">
<stop stop-color="#E4C36C"/>
<stop offset="1" stop-color="#EAAD0A"/>
</linearGradient>
<clipPath id="clip0_1_20">
<rect width="632.471" height="813.176" fill="white" transform="translate(195.765 105.412)"/>
</clipPath>
</defs>
</svg>
